<svg xmlns="http://www.w3.org/2000/svg" viewBox="0 0 64 64">
  <defs>
    <radialGradient id="g" cx="50%" cy="40%" r="60%">
      <stop offset="0%" stop-color="#9af2e4"/>
      <stop offset="60%" stop-color="#7ee0d2"/>
      <stop offset="100%" stop-color="#2a8a7c"/>
    </radialGradient>
  </defs>
  <rect width="64" height="64" rx="14" fill="#06080d"/>
  <circle cx="32" cy="32" r="18" fill="url(#g)" opacity="0.18"/>
  <path
    d="M32 14c-5 0-9 4-9 9 0 3 2 5 4 7-3 1-6 4-6 8 0 5 4 9 9 9 1 0 2 0 3-1 1 1 2 1 3 1 5 0 9-4 9-9 0-4-3-7-6-8 2-2 4-4 4-7 0-5-4-9-9-9z"
    fill="#7ee0d2"/>
  <circle cx="32" cy="23" r="2" fill="#06080d"/>
  <circle cx="27" cy="36" r="1.5" fill="#06080d"/>
  <circle cx="37" cy="36" r="1.5" fill="#06080d"/>
</svg>
